<?xml version="1.0" standalone="no"?><!DOCTYPE svg PUBLIC "-//W3C//DTD SVG 1.1//EN" "http://www.w3.org/Graphics/SVG/1.1/DTD/svg11.dtd"><svg t="1691718188681" class="icon" viewBox="0 0 1024 1024" version="1.1" xmlns="http://www.w3.org/2000/svg" p-id="2284" width="64" height="64" xmlns:xlink="http://www.w3.org/1999/xlink"><path d="M598.959476 21.531166l6.303102 3.501724 280.137908 163.413779a186.758605 186.758605 0 0 1 93.379303 161.779642v323.792732a186.758605 186.758605 0 0 1-93.379303 161.779642l-280.137908 163.180331a186.758605 186.758605 0 0 1-186.758605 0l-280.137907-163.41378a186.758605 186.758605 0 0 1-93.379303-161.779641v-324.493077a186.758605 186.758605 0 0 1 93.379303-161.779642l280.137907-162.479986a186.758605 186.758605 0 0 1 180.455503-3.501724z m-157.110677 43.654824l-280.137908 163.41378a140.068954 140.068954 0 0 0-70.034477 121.393093v324.02618a140.068954 140.068954 0 0 0 70.034477 121.393093l281.305149 163.41378a140.068954 140.068954 0 0 0 140.068954 0l280.137908-163.41378a140.068954 140.068954 0 0 0 70.034477-121.393093V349.292518a140.068954 140.068954 0 0 0-70.034477-121.393093L581.917753 65.18599l-5.36931-3.034827a140.068954 140.068954 0 0 0-134.699644 3.034827z m72.602408 314.221353h1.867586l65.59896 38.518963a11.905861 11.905861 0 0 1 4.202068 16.107929 11.672413 11.672413 0 0 1-14.006895 5.135862h-1.867586l-59.062409-34.083446-230.179981 131.664817v125.361714l108.553439 62.330684 52.29241-28.947584a11.719102 11.719102 0 0 1 13.539999 19.142758h-1.867586l-58.362064 33.3831a11.205516 11.205516 0 0 1-9.804827 0h-1.867586l-120.225852-70.034477a11.905861 11.905861 0 0 1-5.836207-8.170689v-140.068954a11.438965 11.438965 0 0 1 3.968621-8.871033l1.867586-1.167242 241.152049-140.068953a12.139309 12.139309 0 0 1 10.038275 0z m186.758605 105.75206h1.867586l58.128616 33.616549a11.905861 11.905861 0 0 1 5.836206 7.937241v140.068954a11.672413 11.672413 0 0 1-3.96862 8.871034l-1.867586 1.167241-120.225852 70.034477a11.905861 11.905861 0 0 1-9.804827 0h-1.867586l-241.152049-140.068954a10.972068 10.972068 0 0 1-5.602758-7.937241v-77.037924a11.672413 11.672413 0 0 1 11.672413-11.672413 11.438965 11.438965 0 0 1 11.438964 9.571378v70.034477l229.479636 132.365162 108.55344-62.330685v-123.027231l-52.29241-30.348273a11.438965 11.438965 0 0 1-4.202069-15.874482 11.672413 11.672413 0 0 1 13.073103-5.135861z m-189.326536-250.023082h1.867586l120.692749 70.034477a12.372758 12.372758 0 0 1 5.602758 7.93724v280.137908a12.372758 12.372758 0 0 1-4.202069 8.871034h-1.634138L569.078099 639.702149a11.438965 11.438965 0 0 1-15.874482-4.435517 11.205516 11.205516 0 0 1 2.567931-14.70724l1.634138-1.167241 59.295857-34.083446V321.979072l-109.487232-62.330684-108.786888 62.330684v60.696547a11.672413 11.672413 0 0 1-11.672413 11.672413 11.905861 11.905861 0 0 1-11.438964-9.571379v-70.034477a11.438965 11.438965 0 0 1 4.202068-8.871034h1.634138l120.459301-70.034476a11.205516 11.205516 0 0 1 10.271723-0.700345z" p-id="2285"></path></svg>
